HIERARCHY
ROOT Hips
{
	OFFSET 0.00000 0.00000 0.00000
	CHANNELS 6 Xposition Yposition Zposition Zrotation Yrotation Xrotation 
	JOINT LHipJoint
	{
		OFFSET 0 0 0
		CHANNELS 3 Zrotation Yrotation Xrotation
		JOINT LeftHip
		{
			OFFSET 1.36306 -1.79463 0.83929
			CHANNELS 3 Zrotation Yrotation Xrotation
			JOINT LeftKnee
			{
				OFFSET 2.44811 -6.72613 0.00000
				CHANNELS 3 Zrotation Yrotation Xrotation
				JOINT LeftAnkle
				{
					OFFSET 2.56220 -7.03959 0.00000
					CHANNELS 3 Zrotation Yrotation Xrotation
					JOINT LeftToe
					{
						OFFSET 0.15764 -0.43311 2.32255
						CHANNELS 3 Zrotation Yrotation Xrotation
						End Site
						{
							OFFSET 0.00000 -0.00000 1.18966
						}
					}
				}
			}
		}
	}
	JOINT RHipJoint
	{
		OFFSET 0 0 0
		CHANNELS 3 Zrotation Yrotation Xrotation
		JOINT RightHip
		{
			OFFSET -1.30552 -1.79463 0.83929
			CHANNELS 3 Zrotation Yrotation Xrotation
			JOINT RightKnee
			{
				OFFSET -2.54253 -6.98555 0.00000
				CHANNELS 3 Zrotation Yrotation Xrotation
				JOINT RightAnkle
				{
					OFFSET -2.56826 -7.05623 0.00000
					CHANNELS 3 Zrotation Yrotation Xrotation
					JOINT RightToe
					{
						OFFSET -0.16473 -0.45259 2.36315
						CHANNELS 3 Zrotation Yrotation Xrotation
						End Site
						{
							OFFSET -0.00000 -0.00000 1.21082
						}
					}
				}
			}
		}
	}
	JOINT lowerback
	{
		OFFSET 0 0 0
		CHANNELS 3 Zrotation Yrotation Xrotation
		JOINT Chest
		{
			OFFSET 0.02827 2.03559 -0.19338
			CHANNELS 3 Zrotation Yrotation Xrotation
			JOINT Chest2
			{
				OFFSET 0.05672 2.04885 -0.04275
				CHANNELS 3 Zrotation Yrotation Xrotation
				JOINT lowerneck
				{
					OFFSET 0 0 0
					CHANNELS 3 Zrotation Yrotation Xrotation
					JOINT Neck
					{
						OFFSET -0.05417 1.74624 0.17202
						CHANNELS 3 Zrotation Yrotation Xrotation
						JOINT Head
						{
							OFFSET 0.10407 1.76136 -0.12397
							CHANNELS 3 Zrotation Yrotation Xrotation
							End Site
							{
								OFFSET 0.03720 1.77044 -0.06241
							}
						}
					}
				}
				JOINT LeftCollar
				{
					OFFSET 0 0 0
					CHANNELS 3 Zrotation Yrotation Xrotation
					JOINT LeftShoulder
					{
						OFFSET 3.36241 1.20089 -0.31121
CHANNELS 3 Zrotation Xrotation Yrotation
						JOINT LeftElbow
						{
OFFSET 0 -4.983000 -0.000000
CHANNELS 3 Zrotation Xrotation Yrotation
							JOINT LeftWrist
							{
OFFSET 0 -3.483560 -0.000000
CHANNELS 3 Zrotation Xrotation Yrotation
								JOINT lhand
								{
									OFFSET 0 0 0
CHANNELS 3 Zrotation Xrotation Yrotation
									JOINT LFingers
									{
OFFSET 0 -0.715260 -0.000000
CHANNELS 3 Zrotation Xrotation Yrotation
										End Site
										{
OFFSET 0 -0.576660 -0.000000
										}
									}
								}
								JOINT LThumb
								{
OFFSET 0 0.000000 0.000000
CHANNELS 3 Zrotation Xrotation Yrotation
									End Site
									{
OFFSET 0 -0.585470 0.585470
									}
								}
							}
						}
					}
				}
				JOINT RightCollar
				{
					OFFSET 0 0 0
					CHANNELS 3 Zrotation Yrotation Xrotation
					JOINT RightShoulder
					{
						OFFSET -3.13660 1.37405 -0.40465
CHANNELS 3 Zrotation Xrotation Yrotation
						JOINT RightElbow
						{
OFFSET 0 -5.241900 -0.000000
CHANNELS 3 Zrotation Xrotation Yrotation
							JOINT RightWrist
							{
OFFSET 0 -3.444170 -0.000000
CHANNELS 3 Zrotation Xrotation Yrotation
								JOINT rhand
								{
									OFFSET 0 0 0
CHANNELS 3 Zrotation Xrotation Yrotation
									JOINT RFingers
									{
OFFSET 0 -0.622530 -0.000000
CHANNELS 3 Zrotation Xrotation Yrotation
										End Site
										{
OFFSET 0 -0.501900 -0.000000
										}
									}
								}
								JOINT RThumb
								{
OFFSET 0 0.000000 0.000000
CHANNELS 3 Zrotation Xrotation Yrotation
									End Site
									{
OFFSET 0 -0.509560 0.509560
									}
								}
							}
						}
					}
				}
			}
		}
	}
}
MOTION
Frames: 5
Frame Time: 0.008333333333333333
14.258185 30.883872 50.336725 -177.415481 19.590379 -199.343154 0.000000 0.000000 0.000000 -7.076532 16.678871 -58.890701 17.044155 19.789081 81.328361 -177.100336 6.287053 -34.823249 0.498404 4.525252 12.559372 0.000000 0.000000 0.000000 15.383936 38.224447 -87.023319 -30.441550 -17.153224 121.998883 -1.706850 -4.130604 -26.451964 -0.056964 -1.536584 4.226590 -3.214880 -2.517519 34.561205 -0.530019 -1.556963 10.449154 1.563843 0.402460 -5.877711 -25.911377 4.968988 -5.888527 11.687686 8.769406 17.554918 8.378017 3.866383 4.652400 0.000000 0.000000 0.000000 125.161048 -52.245151 72.034355 21.793832 -32.742809 6.474193 -0.244069 18.692755 -1.973984 0.000000 0.000000 0.000000 -7.125000 0.000000 0.000000 -21.163436 31.441492 -7.473707 0.000000 0.000000 0.000000 -235.186016 -64.736199 176.410321 -31.258448 -41.947865 -12.242256 -19.534841 23.365299 20.663429 0.000000 0.000000 0.000000 7.125000 0.000000 0.000000 9.161822 51.562359 -1.491995
14.230585 30.908298 50.046252 -177.360142 19.117928 -201.703805 0.000000 0.000000 0.000000 -6.287174 17.501293 -56.709052 17.943348 19.898174 83.977060 -177.242377 7.205192 -34.520861 0.514538 4.596820 12.762185 0.000000 0.000000 0.000000 14.460333 36.786322 -91.059627 -27.347260 -18.651256 111.958585 -1.444212 0.200137 -22.668686 -0.017248 -0.812488 2.233232 -3.183363 -2.812010 32.948613 -0.392493 -1.648703 11.737280 1.876634 0.395649 -4.406791 -25.736953 5.082632 -5.049329 11.554892 8.730422 17.446062 8.262221 3.857955 4.502860 0.000000 0.000000 0.000000 119.566391 -54.200802 67.064479 24.288974 -35.467574 7.873912 0.870428 18.474229 -2.338407 0.000000 0.000000 0.000000 -7.125000 0.000000 0.000000 -20.397108 31.828569 -6.965469 0.000000 0.000000 0.000000 -239.921117 -67.134387 172.953312 -33.028751 -43.351821 -13.441940 -19.702872 22.956131 21.627920 0.000000 0.000000 0.000000 7.125000 0.000000 0.000000 9.337397 52.579477 -1.754044
14.225900 30.928001 49.638216 -177.095491 18.605245 -203.442199 0.000000 0.000000 0.000000 -5.334578 17.315901 -52.838231 18.291356 19.929818 84.998609 -176.484743 6.448471 -38.055636 0.426521 4.189876 11.611567 0.000000 0.000000 0.000000 16.976354 35.233411 -87.284578 -24.293658 -19.552018 102.644623 -0.258594 -4.330616 -12.194736 -0.041978 -1.216433 3.346318 -2.893224 -3.148832 31.681213 -0.061698 -1.868650 12.212966 2.134478 0.289824 -3.297396 -26.020902 4.954926 -4.389792 11.347257 8.550416 18.012322 8.245417 3.732462 4.619978 0.000000 0.000000 0.000000 111.409202 -56.425106 60.911907 28.206304 -39.304502 10.254504 1.590766 18.687148 -2.037742 0.000000 0.000000 0.000000 -7.125000 0.000000 0.000000 -19.783627 31.575320 -6.860310 0.000000 0.000000 0.000000 -249.382139 -69.385436 164.095313 -36.323803 -45.733804 -15.754192 -19.696823 22.860672 21.930448 0.000000 0.000000 0.000000 7.125000 0.000000 0.000000 9.455842 52.887610 -1.848358
14.238322 30.972695 49.186678 -177.413013 17.433786 -204.604237 0.000000 0.000000 0.000000 -5.529441 18.094944 -51.274026 19.191440 19.984330 87.635350 -176.289664 6.289078 -38.928330 0.297059 3.504524 9.686609 0.000000 0.000000 0.000000 18.167792 33.557931 -81.855589 -23.973020 -19.617276 101.687849 -0.643915 1.209122 -14.793256 -0.787321 -5.664260 15.813257 -3.127860 -3.417136 31.423965 0.047356 -2.313218 12.056835 2.530101 0.048744 -3.315975 -26.034305 4.870898 -4.665349 11.166524 8.609047 18.600431 8.236854 3.736363 4.857272 0.000000 0.000000 0.000000 101.657882 -57.375314 52.257842 34.017364 -44.097488 14.125197 1.818336 18.567084 -2.842394 0.000000 0.000000 0.000000 -7.125000 0.000000 0.000000 -19.779953 32.342131 -6.469390 0.000000 0.000000 0.000000 -262.325226 -71.153888 151.180120 -42.137917 -49.286737 -20.045054 -18.806324 22.589045 21.634079 0.000000 0.000000 0.000000 7.125000 0.000000 0.000000 10.233969 52.426001 -1.886576
14.289664 30.972672 48.784669 -177.193205 15.826610 -205.256361 0.000000 0.000000 0.000000 -3.210790 18.723648 -53.779083 21.612849 19.936764 94.720639 -179.017981 16.480807 -30.919167 0.608408 4.991453 13.884435 0.000000 0.000000 0.000000 19.670737 32.269115 -81.085765 -24.913777 -19.410898 104.503777 -0.841545 -3.687265 -19.042915 -0.888208 -6.007423 16.806024 -3.003979 -4.075120 32.409283 0.270976 -3.108606 11.747100 2.999499 -0.311463 -4.045422 -27.013197 4.939865 -5.390304 11.316474 8.847941 17.608182 8.402465 3.840970 4.580162 0.000000 0.000000 0.000000 93.103394 -56.678424 45.663854 42.169471 -49.301869 20.069600 1.007330 18.518650 -2.786043 0.000000 0.000000 0.000000 -7.125000 0.000000 0.000000 -20.390410 32.254068 -6.739132 0.000000 0.000000 0.000000 86.427712 -71.557374 140.597252 -50.167562 -53.061540 -26.308434 -18.725545 23.249448 22.312585 0.000000 0.000000 0.000000 7.125000 0.000000 0.000000 10.577906 53.099578 -2.126575
